<svg width="24" height="24" viewBox="0 0 24 24" fill="none" xmlns="http://www.w3.org/2000/svg">
<g clip-path="url(#clip0_43_27028)">
<path d="M12 24C18.6274 24 24 18.6274 24 12C24 5.37258 18.6274 0 12 0C5.37258 0 0 5.37258 0 12C0 18.6274 5.37258 24 12 24Z" fill="black"/>
<path d="M11.9228 3.29856C11.8133 3.05106 12.2093 2.87556 12.3188 3.11106C14.8928 7.54506 17.4668 11.9813 20.0408 16.4221C19.9035 16.4221 19.7715 16.3771 19.6395 16.3561L12.7695 14.9866C12.5445 14.9753 12.495 14.6116 12.7148 14.5576L15.4103 13.8151C15.4424 13.8069 15.4723 13.7918 15.4979 13.7707C15.5235 13.7497 15.5441 13.7232 15.5583 13.6933C15.5725 13.6633 15.5799 13.6306 15.58 13.5975C15.5801 13.5643 15.5728 13.5316 15.5588 13.5016L11.9228 3.29256V3.29781V3.29856Z" fill="white"/>
<path d="M11.5275 3.32098C11.5523 3.35698 11.574 3.39598 11.5928 3.43648C12.4073 5.74648 13.2428 8.05648 14.0513 10.3665C14.1233 10.5585 13.8533 10.7182 13.7213 10.575C13.0283 9.84898 12.3683 9.10123 11.6865 8.37523C11.5763 8.27623 11.4165 8.34223 11.3453 8.44648L4.2615 16.7685C4.179 16.8562 4.10775 16.9882 3.96975 17.0047C3.87075 17.0047 3.80475 16.9275 3.75 16.851V16.7235C6.34575 12.258 8.9385 7.79098 11.5275 3.32098Z" fill="white"/>
<path d="M9.35991 11.2463C9.49191 11.2081 9.66741 11.3011 9.62391 11.4608C9.34866 12.4178 9.05766 13.3696 8.77116 14.3206C8.72766 14.4421 8.83716 14.5516 8.95266 14.5576C12.6599 15.3001 16.3672 16.0696 20.0737 16.8121C20.1457 16.8233 20.1952 16.8781 20.2499 16.9223V17.0761L20.1449 17.1863H4.40991C6.05991 15.2063 7.70466 13.2151 9.35991 11.2463Z" fill="white"/>
</g>
<defs>
<clipPath id="clip0_43_27028">
<rect width="24" height="24" fill="white"/>
</clipPath>
</defs>
</svg>
