<svg width="24" height="24" viewBox="0 0 24 24" fill="none" xmlns="http://www.w3.org/2000/svg">
<g clip-path="url(#clip0_43_26360)">
<path d="M12 24C18.6274 24 24 18.6274 24 12C24 5.37258 18.6274 0 12 0C5.37258 0 0 5.37258 0 12C0 18.6274 5.37258 24 12 24Z" fill="black"/>
<path fill-rule="evenodd" clip-rule="evenodd" d="M10.6688 17.6122H13.2997V20.2432H10.6688V17.6122ZM10.6688 6H13.2997V8.631H10.6688V6ZM16.869 6H19.5V8.631H16.869V6ZM4.5 6H7.131V8.631H4.5V6ZM13.7685 11.8065H16.3995V14.4375H13.7685V11.8065ZM7.56225 11.8065H10.1932V14.4375H7.56225V11.8065Z" fill="white"/>
</g>
<defs>
<clipPath id="clip0_43_26360">
<rect width="24" height="24" fill="white"/>
</clipPath>
</defs>
</svg>
